M48
; DRILL file {KiCad (5.1.6)-1} date 12/01/25 14:01:55
; FORMAT={-:-/ absolute / metric / decimal}
; #@! TF.CreationDate,2025-12-01T14:01:55-05:00
; #@! TF.GenerationSoftware,Kicad,Pcbnew,(5.1.6)-1
FMAT,2
METRIC
T1C0.800
T2C0.900
T3C1.000
T4C3.200
%
G90
G05
T1
X5.08Y49.53
X5.08Y19.05
X13.97Y81.28
X13.97Y68.58
X22.86Y58.42
X22.86Y53.34
X29.21Y86.36
X35.56Y10.16
X39.37Y71.12
X44.348Y83.947
X44.45Y86.36
X44.45Y73.66
X45.72Y71.12
X48.26Y60.96
X50.8Y10.16
X53.34Y60.96
X55.88Y76.2
X55.88Y29.21
X34.29Y17.78
X41.91Y17.78
X41.91Y77.47
X41.91Y74.93
X35.56Y68.58
X35.56Y60.96
X45.72Y12.7
X53.34Y12.7
X25.4Y63.5
X27.9Y63.5
X7.62Y63.5
X7.62Y58.42
X15.24Y60.96
X39.37Y83.82
X39.37Y76.2
X36.83Y83.82
X36.83Y76.2
X46.99Y86.36
X46.99Y78.74
X26.67Y83.82
X26.67Y76.2
X17.78Y68.58
X17.78Y60.96
X7.62Y55.84
X7.62Y53.34
X31.75Y83.82
X31.75Y76.2
X22.86Y68.58
X22.86Y60.96
X24.13Y83.82
X24.13Y76.2
X33.02Y62.738
X33.02Y55.118
X16.51Y10.16
X16.51Y2.54
X34.29Y15.24
X41.91Y15.24
X8.89Y19.05
X8.89Y11.43
X21.59Y83.82
X21.59Y76.2
X11.43Y73.66
X11.43Y71.12
X16.55Y76.2
X19.05Y76.2
X20.98Y17.78
X20.98Y2.54
X30.48Y17.78
X30.48Y2.54
X35.56Y73.66
X35.56Y71.16
X38.1Y60.96
X45.72Y60.96
X7.62Y49.53
X7.62Y24.13
X10.16Y49.53
X10.16Y24.13
X12.7Y49.53
X12.7Y24.13
X15.24Y49.53
X15.24Y24.13
X17.78Y49.53
X17.78Y24.13
X20.32Y49.53
X20.32Y24.13
X22.86Y49.53
X22.86Y24.13
X25.4Y49.53
X25.4Y24.13
X27.94Y49.53
X27.94Y24.13
X30.48Y49.53
X30.48Y24.13
X33.02Y49.53
X33.02Y24.13
X35.56Y49.53
X35.56Y24.13
X38.1Y49.53
X38.1Y24.13
X40.64Y49.53
X40.64Y24.13
X43.18Y49.53
X43.18Y24.13
X45.72Y49.53
X45.72Y24.13
X48.26Y49.53
X48.26Y24.13
X50.8Y49.53
X50.8Y24.13
X53.34Y49.53
X53.34Y24.13
X20.32Y68.58
X20.32Y60.96
X8.89Y73.66
X8.89Y66.04
X50.84Y53.34
X53.34Y53.34
X12.7Y16.51
X16.5Y16.51
X34.29Y83.82
X34.29Y76.2
X25.4Y73.66
X25.4Y71.12
X25.4Y68.58
X25.4Y66.04
X33.02Y73.66
X33.02Y71.12
X33.02Y68.58
X33.02Y66.04
X38.1Y66.04
X45.72Y68.58
X45.72Y63.5
X5.08Y55.88
X5.08Y53.34
X25.4Y60.96
X27.9Y60.96
X12.7Y10.16
X12.7Y7.62
T2
X3.81Y16.51
X3.81Y13.97
X3.81Y11.43
X26.67Y90.17
X29.21Y90.17
X31.75Y90.17
T3
X35.56Y6.35
X39.37Y6.35
X46.99Y16.51
X49.53Y16.51
X52.07Y16.51
X46.99Y6.35
X50.8Y6.35
T4
X57.15Y91.44
X3.81Y91.44
X3.81Y3.81
X57.15Y3.81
T0
M30
