M48
FMAT,2
METRIC
T1C0.800
T2C0.900
T3C1.000
T4C3.200
%
G90
G05
T1
X22.225Y5.08
X31.115Y5.08
X35.56Y9.525
X50.8Y10.16
X41.91Y12.7
X34.29Y12.7
X34.29Y15.24
X41.91Y15.24
X27.94Y21.59
X20.32Y21.59
X20.32Y24.13
X27.94Y24.13
X44.45Y25.44
X25.4Y26.67
X27.94Y26.67
X44.45Y27.94
X7.62Y27.94
X5.08Y27.94
X53.34Y27.94
X46.99Y27.94
X5.08Y30.48
X41.91Y30.48
X53.34Y30.48
X55.88Y30.48
X39.37Y31.75
X30.48Y31.75
X22.606Y31.75
X13.843Y31.75
X25.4Y34.29
X27.94Y34.29
X53.34Y38.1
X50.8Y38.1
X48.26Y38.1
X45.72Y38.1
X43.18Y38.1
X40.64Y38.1
X38.1Y38.1
X35.56Y38.1
X33.02Y38.1
X30.48Y38.1
X27.94Y38.1
X25.4Y38.1
X22.86Y38.1
X20.32Y38.1
X17.78Y38.1
X15.24Y38.1
X12.7Y38.1
X10.16Y38.1
X7.62Y38.1
X55.88Y54.61
X45.72Y54.61
X53.34Y54.61
X53.34Y63.5
X50.8Y63.5
X48.26Y63.5
X45.72Y63.5
X43.18Y63.5
X40.64Y63.5
X38.1Y63.5
X35.56Y63.5
X33.02Y63.5
X30.48Y63.5
X27.94Y63.5
X25.4Y63.5
X22.86Y63.5
X20.32Y63.5
X17.78Y63.5
X15.24Y63.5
X12.7Y63.5
X10.16Y63.5
X7.62Y63.5
X5.08Y63.5
X5.12Y67.31
X7.62Y67.31
X50.84Y67.31
X53.34Y67.31
X7.62Y69.85
X5.08Y69.85
X26.67Y71.12
X35.56Y71.12
X40.64Y71.12
X26.67Y76.2
X31.75Y76.2
X20.32Y76.2
X24.13Y76.2
X34.29Y76.2
X38.1Y76.2
X29.21Y76.2
X40.64Y76.2
X8.255Y76.898
X12.055Y76.898
X20.32Y81.24
X38.1Y81.24
X29.21Y83.82
X34.29Y83.82
X24.13Y83.82
X31.75Y83.82
X26.67Y83.82
T2
X52.705Y12.7
X45.085Y12.7
X10.795Y20.32
X34.29Y20.32
X36.83Y20.32
X39.37Y20.32
X41.91Y20.32
X55.54Y21.93
X53.24Y21.93
X10.795Y27.94
X34.29Y27.94
X36.83Y27.94
X39.37Y27.94
X41.91Y27.94
X53.34Y58.42
X45.72Y58.42
T3
X46.99Y6.35
X50.8Y6.35
X35.56Y6.35
X39.37Y6.35
X29.21Y7.62
X13.97Y7.62
X5.08Y11.43
X5.08Y13.97
X46.355Y16.51
X48.895Y16.51
X51.435Y16.51
X5.08Y16.51
X29.21Y17.12
X13.97Y17.12
X26.67Y90.17
X29.21Y90.17
X31.75Y90.17
T4
X3.81Y3.81
X57.15Y3.81
X57.15Y91.44
X3.81Y91.44
G05
T0
M30
