%TF.GenerationSoftware,KiCad,Pcbnew,(5.1.6)-1*%
%TF.CreationDate,2025-12-07T11:43:41-05:00*%
%TF.ProjectId,board2,626f6172-6432-42e6-9b69-6361645f7063,rev?*%
%TF.SameCoordinates,PX196f3b0PY6f6d640*%
%TF.FileFunction,Copper,L1,Top*%
%TF.FilePolarity,Positive*%
%FSLAX46Y46*%
G04 Gerber Fmt 4.6, Leading zero omitted, Abs format (unit mm)*
G04 Created by KiCad (PCBNEW (5.1.6)-1) date 2025-12-07 11:43:41*
%MOMM*%
%LPD*%
G01*
G04 APERTURE LIST*
%TA.AperFunction,ComponentPad*%
%ADD10O,3.470000X2.200000*%
%TD*%
%TA.AperFunction,ComponentPad*%
%ADD11C,2.000000*%
%TD*%
%TA.AperFunction,ComponentPad*%
%ADD12C,2.200000*%
%TD*%
%TA.AperFunction,ComponentPad*%
%ADD13O,3.000000X3.470000*%
%TD*%
%TA.AperFunction,ComponentPad*%
%ADD14O,2.200000X3.470000*%
%TD*%
%TA.AperFunction,ComponentPad*%
%ADD15C,1.900000*%
%TD*%
%TA.AperFunction,ViaPad*%
%ADD16C,2.000000*%
%TD*%
%TA.AperFunction,Conductor*%
%ADD17C,1.000000*%
%TD*%
%TA.AperFunction,Conductor*%
%ADD18C,1.500000*%
%TD*%
G04 APERTURE END LIST*
D10*
%TO.P,C1,1*%
%TO.N,+5V*%
X7620000Y76898500D03*
%TO.P,C1,2*%
%TO.N,GND*%
X12590000Y76898500D03*
%TD*%
D11*
%TO.P,C4,2*%
%TO.N,GND*%
X50840000Y67310000D03*
%TO.P,C4,1*%
%TO.N,+3V3*%
X53340000Y67310000D03*
%TD*%
D12*
%TO.P,D1,2*%
%TO.N,Net-(D1-Pad2)*%
X10795000Y20320000D03*
%TO.P,D1,1*%
%TO.N,Net-(D1-Pad1)*%
X10795000Y27940000D03*
%TD*%
%TO.P,D2,1*%
%TO.N,PUMP+*%
X52705000Y12700000D03*
%TO.P,D2,2*%
%TO.N,PUMP-*%
X45085000Y12700000D03*
%TD*%
D13*
%TO.P,J1,2*%
%TO.N,GND*%
X39370000Y6350000D03*
%TO.P,J1,1*%
%TO.N,PUMP+*%
X35560000Y6350000D03*
%TD*%
D12*
%TO.P,J2,3*%
%TO.N,ROD_HIGH*%
X26670000Y90170000D03*
%TO.P,J2,2*%
%TO.N,DRIVE_ROD*%
X29210000Y90170000D03*
%TO.P,J2,1*%
%TO.N,ROD_LOW*%
X31750000Y90170000D03*
%TD*%
%TO.P,J3,1*%
%TO.N,Net-(D1-Pad1)*%
X7620000Y27940000D03*
%TO.P,J3,2*%
%TO.N,+5V*%
X5080000Y27940000D03*
%TD*%
%TO.P,J7,1*%
%TO.N,+5V*%
X5080000Y16510000D03*
%TO.P,J7,2*%
%TO.N,GND*%
X5080000Y13970000D03*
%TO.P,J7,3*%
%TO.N,Net-(J7-Pad3)*%
X5080000Y11430000D03*
%TD*%
D13*
%TO.P,J8,1*%
%TO.N,PUMP-*%
X46990000Y6350000D03*
%TO.P,J8,2*%
%TO.N,PUMP+*%
X50800000Y6350000D03*
%TD*%
D10*
%TO.P,M1,1*%
%TO.N,GND*%
X28575000Y7620000D03*
%TO.P,M1,2*%
X14605000Y7620000D03*
%TO.P,M1,3*%
%TO.N,Net-(D1-Pad2)*%
X14605000Y17120000D03*
%TO.P,M1,4*%
%TO.N,PUMP+*%
X28575000Y17120000D03*
%TD*%
D12*
%TO.P,Q1,1*%
%TO.N,Net-(Q1-Pad1)*%
X46355000Y16510000D03*
%TO.P,Q1,2*%
%TO.N,PUMP-*%
X48895000Y16510000D03*
%TO.P,Q1,3*%
%TO.N,GND*%
X51435000Y16510000D03*
%TD*%
D14*
%TO.P,U2,1*%
%TO.N,+5V*%
X7620000Y64135000D03*
%TO.P,U2,2*%
%TO.N,Net-(U2-Pad2)*%
X10160000Y64135000D03*
%TO.P,U2,3*%
%TO.N,Net-(U2-Pad3)*%
X12700000Y64135000D03*
%TO.P,U2,4*%
%TO.N,Net-(U2-Pad4)*%
X15240000Y64135000D03*
%TO.P,U2,5*%
%TO.N,Net-(U2-Pad5)*%
X17780000Y64135000D03*
%TO.P,U2,6*%
%TO.N,GND*%
X20320000Y64135000D03*
%TO.P,U2,7*%
%TO.N,Net-(U2-Pad7)*%
X22860000Y64135000D03*
%TO.P,U2,8*%
%TO.N,Net-(U2-Pad8)*%
X25400000Y64135000D03*
%TO.P,U2,9*%
%TO.N,Net-(U2-Pad9)*%
X27940000Y64135000D03*
%TO.P,U2,10*%
%TO.N,S_DRIVE*%
X30480000Y64135000D03*
%TO.P,U2,11*%
%TO.N,Net-(U2-Pad11)*%
X33020000Y64135000D03*
%TO.P,U2,12*%
%TO.N,SENSOR_HIGH*%
X35560000Y64135000D03*
%TO.P,U2,13*%
%TO.N,Net-(U2-Pad13)*%
X38100000Y64135000D03*
%TO.P,U2,14*%
%TO.N,SENSOR_LOW*%
X40640000Y64135000D03*
%TO.P,U2,15*%
%TO.N,Net-(U2-Pad15)*%
X43180000Y64135000D03*
%TO.P,U2,16*%
%TO.N,Net-(U2-Pad16)*%
X45720000Y64135000D03*
%TO.P,U2,17*%
%TO.N,Net-(U2-Pad17)*%
X48260000Y64135000D03*
%TO.P,U2,18*%
%TO.N,Net-(U2-Pad18)*%
X50800000Y64135000D03*
%TO.P,U2,19*%
%TO.N,+3V3*%
X53340000Y64135000D03*
%TO.P,U2,20*%
%TO.N,GND*%
X53340000Y37465000D03*
%TO.P,U2,21*%
%TO.N,Net-(U2-Pad21)*%
X50800000Y37465000D03*
%TO.P,U2,22*%
%TO.N,Net-(U2-Pad22)*%
X48260000Y37465000D03*
%TO.P,U2,23*%
%TO.N,Net-(U2-Pad23)*%
X45720000Y37465000D03*
%TO.P,U2,24*%
%TO.N,Net-(U2-Pad24)*%
X43180000Y37465000D03*
%TO.P,U2,25*%
%TO.N,Net-(U2-Pad25)*%
X40640000Y37465000D03*
%TO.P,U2,26*%
%TO.N,GND*%
X38100000Y37465000D03*
%TO.P,U2,27*%
%TO.N,Net-(U2-Pad27)*%
X35560000Y37465000D03*
%TO.P,U2,28*%
%TO.N,Net-(U2-Pad28)*%
X33020000Y37465000D03*
%TO.P,U2,29*%
%TO.N,Net-(U2-Pad29)*%
X30480000Y37465000D03*
%TO.P,U2,30*%
%TO.N,PUMP*%
X27940000Y37465000D03*
%TO.P,U2,31*%
%TO.N,WS2812B*%
X25400000Y37465000D03*
%TO.P,U2,32*%
%TO.N,Net-(U2-Pad32)*%
X22860000Y37465000D03*
%TO.P,U2,33*%
%TO.N,Net-(U2-Pad33)*%
X20320000Y37465000D03*
%TO.P,U2,34*%
%TO.N,Net-(U2-Pad34)*%
X17780000Y37465000D03*
%TO.P,U2,35*%
%TO.N,Net-(U2-Pad35)*%
X15240000Y37465000D03*
%TO.P,U2,36*%
%TO.N,Net-(U2-Pad36)*%
X12700000Y37465000D03*
%TO.P,U2,37*%
%TO.N,Net-(U2-Pad37)*%
X10160000Y37465000D03*
%TO.P,U2,38*%
%TO.N,Net-(U2-Pad38)*%
X7620000Y37465000D03*
%TD*%
D12*
%TO.P,R18,1*%
%TO.N,WS2812B*%
X25400000Y34290000D03*
%TO.P,R18,2*%
%TO.N,Net-(J7-Pad3)*%
X25400000Y26670000D03*
%TD*%
D11*
%TO.P,C2,2*%
%TO.N,GND*%
X38100000Y81240000D03*
%TO.P,C2,1*%
%TO.N,SENSOR_LOW*%
X38100000Y76200000D03*
%TD*%
%TO.P,C3,1*%
%TO.N,+5V*%
X7620000Y67310000D03*
%TO.P,C3,2*%
%TO.N,GND*%
X5120000Y67310000D03*
%TD*%
%TO.P,C5,1*%
%TO.N,SENSOR_HIGH*%
X20320000Y76200000D03*
%TO.P,C5,2*%
%TO.N,GND*%
X20320000Y81240000D03*
%TD*%
%TO.P,C7,1*%
%TO.N,PUMP+*%
X44450000Y27940000D03*
%TO.P,C7,2*%
%TO.N,GND*%
X44450000Y25440000D03*
%TD*%
D12*
%TO.P,D3,1*%
%TO.N,Net-(D3-Pad1)*%
X45720000Y58420000D03*
%TO.P,D3,2*%
%TO.N,+3V3*%
X53340000Y58420000D03*
%TD*%
%TO.P,J4,1*%
%TO.N,GND*%
X5080000Y69850000D03*
%TO.P,J4,2*%
%TO.N,+5V*%
X7620000Y69850000D03*
%TD*%
%TO.P,R1,1*%
%TO.N,DRIVE_ROD*%
X29210000Y83820000D03*
%TO.P,R1,2*%
%TO.N,S_DRIVE*%
X29210000Y76200000D03*
%TD*%
%TO.P,R2,1*%
%TO.N,ROD_HIGH*%
X26670000Y83820000D03*
%TO.P,R2,2*%
%TO.N,SENSOR_HIGH*%
X26670000Y76200000D03*
%TD*%
%TO.P,R3,2*%
%TO.N,GND*%
X24130000Y83820000D03*
%TO.P,R3,1*%
%TO.N,SENSOR_HIGH*%
X24130000Y76200000D03*
%TD*%
%TO.P,R4,1*%
%TO.N,ROD_LOW*%
X31750000Y83820000D03*
%TO.P,R4,2*%
%TO.N,SENSOR_LOW*%
X31750000Y76200000D03*
%TD*%
%TO.P,R5,2*%
%TO.N,Net-(R10-Pad1)*%
X53340000Y54610000D03*
%TO.P,R5,1*%
%TO.N,Net-(D3-Pad1)*%
X45720000Y54610000D03*
%TD*%
%TO.P,R6,1*%
%TO.N,SENSOR_LOW*%
X34290000Y76200000D03*
%TO.P,R6,2*%
%TO.N,GND*%
X34290000Y83820000D03*
%TD*%
%TO.P,R7,2*%
%TO.N,Net-(R10-Pad1)*%
X27940000Y21590000D03*
%TO.P,R7,1*%
%TO.N,PUMP+*%
X20320000Y21590000D03*
%TD*%
%TO.P,R8,2*%
%TO.N,Net-(Q1-Pad1)*%
X41910000Y15240000D03*
%TO.P,R8,1*%
%TO.N,Net-(R8-Pad1)*%
X34290000Y15240000D03*
%TD*%
%TO.P,R9,2*%
%TO.N,Net-(R10-Pad1)*%
X27940000Y26670000D03*
%TO.P,R9,1*%
%TO.N,PUMP*%
X27940000Y34290000D03*
%TD*%
%TO.P,R10,1*%
%TO.N,Net-(R10-Pad1)*%
X27940000Y24130000D03*
%TO.P,R10,2*%
%TO.N,GND*%
X20320000Y24130000D03*
%TD*%
%TO.P,R11,1*%
%TO.N,Net-(Q1-Pad1)*%
X41910000Y12700000D03*
%TO.P,R11,2*%
%TO.N,GND*%
X34290000Y12700000D03*
%TD*%
%TO.P,U1,1*%
%TO.N,PUMP+*%
X41910000Y27940000D03*
%TO.P,U1,2*%
%TO.N,Net-(R10-Pad1)*%
X39370000Y27940000D03*
%TO.P,U1,3*%
X36830000Y27940000D03*
%TO.P,U1,4*%
%TO.N,GND*%
X34290000Y27940000D03*
%TO.P,U1,5*%
%TO.N,Net-(R8-Pad1)*%
X34290000Y20320000D03*
%TO.P,U1,6*%
%TO.N,Net-(U1-Pad6)*%
X36830000Y20320000D03*
%TO.P,U1,7*%
%TO.N,Net-(U1-Pad7)*%
X39370000Y20320000D03*
%TO.P,U1,8*%
%TO.N,Net-(U1-Pad8)*%
X41910000Y20320000D03*
%TD*%
D15*
%TO.P,C6,1*%
%TO.N,PUMP+*%
X53240000Y21930000D03*
%TO.P,C6,2*%
%TO.N,GND*%
X55540000Y21930000D03*
%TD*%
D16*
%TO.N,+5V*%
X5080000Y63500000D03*
X5080000Y30480000D03*
%TO.N,PUMP+*%
X50800000Y10160000D03*
X53340000Y27940000D03*
X46990000Y27940000D03*
X22225000Y5080000D03*
X31115000Y5080000D03*
X35560000Y9525000D03*
%TO.N,Net-(J7-Pad3)*%
X13843000Y31750000D03*
X22606000Y31750000D03*
%TO.N,SENSOR_LOW*%
X40640000Y76200000D03*
X40640000Y71120000D03*
%TO.N,SENSOR_HIGH*%
X35560000Y71120000D03*
X26670000Y71120000D03*
%TO.N,Net-(R10-Pad1)*%
X30480000Y31750000D03*
X39370000Y31750000D03*
X41910000Y30480000D03*
X53340000Y30480000D03*
X55880000Y30480000D03*
X55880000Y54610000D03*
%TD*%
D17*
%TO.N,+5V*%
X5080000Y30480000D02*
X5080000Y63500000D01*
%TO.N,PUMP+*%
X46990000Y27940000D02*
X53340000Y27940000D01*
D18*
X22225000Y5080000D02*
X31115000Y5080000D01*
D17*
X35560000Y9525000D02*
X36195000Y10160000D01*
X36195000Y10160000D02*
X50800000Y10160000D01*
%TO.N,Net-(J7-Pad3)*%
X13843000Y31750000D02*
X22606000Y31750000D01*
%TO.N,SENSOR_LOW*%
X40640000Y76200000D02*
X40640000Y71120000D01*
%TO.N,SENSOR_HIGH*%
X26670000Y71120000D02*
X35560000Y71120000D01*
%TO.N,Net-(R10-Pad1)*%
X39370000Y31750000D02*
X30480000Y31750000D01*
X55880000Y54610000D02*
X55880000Y30480000D01*
X53340000Y30480000D02*
X41910000Y30480000D01*
%TD*%
M02*
